<?xml version="1.0" encoding="UTF-8"?>
<svg xmlns="http://www.w3.org/2000/svg" version="1.1" viewBox="0 0 512 512">
  <defs>
    <style>
      .cls-1 {
        fill: #8adcff;
        stroke: #0061e7;
      }

      .cls-1, .cls-2 {
        stroke-miterlimit: 10;
      }

      .cls-2 {
        fill: none;
        stroke: #000;
        stroke-width: 10px;
      }
    </style>
  </defs>
  <!-- Generator: Adobe Illustrator 28.7.6, SVG Export Plug-In . SVG Version: 1.2.0 Build 188)  -->
  <g>
    <g id="Layer_1">
      <circle class="cls-2" cx="259.8" cy="249.2" r="239.6"/>
      <g id="shrkfin">
        <path class="cls-1" d="M372.2,163.8c-29.6-9.2-40.9-6.1-37.5-8.5,2.7-1.9,18.3-13.1,32-23-3.9-25.6-6.4-51.7-6.8-77.9h0s-32.2-2.2-53.7,33.3C157.2,333.6,57.1,368,85,368h354.4s-44.7-92-67.1-204.2Z"/>
      </g>
      <path id="text-0" d="M107.7,298.2h-12.1v-94.2h17.9l26.1,59.6,25.7-59.6h18.3v94.2h-12.8v-77.9l-25.1,56.7h-12.7l-25.3-56.7v77.9h0ZM218.6,298.2h-12.1v-70h12.1v70ZM212.6,216.2h0c-2.3,0-4.3-.9-6-2.6-1.7-1.7-2.5-3.7-2.5-5.9h0c0-2.6.8-4.7,2.3-6.2s3.6-2.3,6.2-2.3h0c2.3,0,4.3.8,6,2.5s2.5,3.6,2.5,6h0c0,2.5-.8,4.6-2.3,6.1-1.5,1.6-3.6,2.4-6.2,2.4h0ZM296.8,291.4l-8.4,8.1-36.2-37.3v35.9h-12.1v-99.6h12.1v56.9l31.6-28.7,7,7.7-27,23.9,33,33h0ZM333.4,299.8h0c-6.7,0-12.1-2.2-15.9-6.7s-5.9-10.8-5.9-19h0v-32.8h-12.1v-10.5h12.4l2.6-22h9.3v22h19.4v10.5h-19.4v33.8c0,5.2,1.1,8.9,3.3,10.9s4.8,3.1,7.9,3.1h0c2.2,0,4.3-.4,6.4-1.1,2-.7,3.9-1.6,5.6-2.6h0l3.4,9.7c-1.8,1.1-4.2,2.1-7.3,3.2-3,1-6.2,1.5-9.6,1.5h0ZM389.1,299.8h0c-6.6,0-12.6-1.6-17.9-4.7-5.3-3.1-9.4-7.4-12.4-12.9-3-5.5-4.5-11.8-4.5-19h0c0-7.5,1.5-14.1,4.6-19.5,3-5.5,7.2-9.7,12.5-12.7,5.3-2.9,11.2-4.5,17.8-4.5h0c6.6,0,12.4,1.5,17.7,4.5,5.3,2.9,9.4,7.2,12.5,12.5,3.1,5.4,4.6,11.9,4.6,19.3h0c0,7.4-1.5,13.9-4.6,19.4-3,5.5-7.2,9.8-12.4,12.9-5.3,3-11.2,4.6-17.9,4.6h0ZM389.1,289h0c7.1,0,12.6-2.4,16.6-7.2,4-4.8,5.9-11,5.9-18.6h0c0-4.7-1-9-2.9-12.9-2-3.9-4.7-7-8-9.4-3.4-2.4-7.2-3.5-11.5-3.5h0c-7.1,0-12.6,2.3-16.6,7s-5.9,10.9-5.9,18.6h0c0,4.7,1,9,2.9,13,2,4,4.7,7.2,8,9.6,3.4,2.4,7.2,3.6,11.5,3.6h0Z"/>
    </g>
  </g>
</svg>