<?xml version="1.0" encoding="UTF-8"?>
<svg xmlns="http://www.w3.org/2000/svg" version="1.1" xmlns:svgjs="http://svgjs.dev/svgjs" viewBox="0 0 1500 939">
  <defs>
    <style>
      .cls-1 {
        fill: #130912;
      }

      .cls-2 {
        fill: #fff;
      }

      .cls-3 {
        fill: #8adcff;
        stroke: #0061e7;
      }

      .cls-3, .cls-4 {
        stroke-miterlimit: 10;
      }

      .cls-5 {
        display: none;
      }

      .cls-5, .cls-4 {
        fill: none;
      }

      .cls-4 {
        stroke: #fff;
        stroke-width: 40px;
      }
    </style>
  </defs>
  <!-- Generator: Adobe Illustrator 28.7.2, SVG Export Plug-In . SVG Version: 1.2.0 Build 154)  -->
  <g>
    <g id="Layer_1">
      <g>
        <path class="cls-3" d="M903.9,133.1s-59.3-4-98.9,61.3c-274.4,452.8-458.8,516.1-407.4,516.1h652.6s-142.4-292.7-146.3-577.4h0Z"/>
        <path class="cls-2" d="M996.7,351s-8.5,7-21.6,1.5c-90.7-38.5-125.4-28-117.6-33.6,9-6.4,98.5-71,98.5-71,0,0,10.3,59.7,40.7,103.1h0Z"/>
      </g>
      <g id="textblocktransform">
        <path id="text-0" class="cls-1" d="M320.5,607.6h-34.1v-265.5h50.4l73.6,168,72.4-168h51.6v265.5h-36v-219.6l-70.9,159.7h-35.7l-71.3-159.7v219.6h0ZM633.1,607.6h-34.1v-197.2h34.1v197.2ZM616,376.6h0c-6.6,0-12.2-2.4-16.9-7.2-4.7-4.8-7-10.4-7-16.7h0c0-7.3,2.1-13.1,6.4-17.4,4.3-4.3,10.1-6.4,17.4-6.4h0c6.6,0,12.2,2.3,16.8,7s7.1,10.3,7.1,16.9h0c0,7.1-2.1,12.8-6.4,17.2-4.3,4.5-10.1,6.7-17.4,6.7h0ZM853.4,588.6l-23.5,22.8-102-105.1v101.3h-34.1v-280.7h34.1v160.4l89.1-80.8,19.7,21.6-76.2,67.5,92.9,92.9h0ZM956.5,612.1h0c-19,0-33.9-6.3-44.9-18.8s-16.5-30.4-16.5-53.6h0v-92.5h-34.1v-29.6h34.9l7.2-62.2h26.2v62.2h54.6v29.6h-54.6v95.2c0,14.7,3.1,24.9,9.3,30.7s13.6,8.7,22.2,8.7h0c6.3,0,12.3-1,18.1-3,5.7-2,10.9-4.4,15.7-7.2h0l9.5,27.3c-5.1,3-11.9,6-20.5,9-8.6,2.9-17.6,4.3-26.9,4.3h-.2ZM1113.6,612.1h0c-18.7,0-35.5-4.4-50.4-13.1-14.9-8.7-26.6-20.8-35-36.4-8.5-15.5-12.7-33.4-12.7-53.6h0c0-21.2,4.3-39.6,12.9-55s20.4-27.3,35.3-35.7c14.9-8.3,31.6-12.5,50.1-12.5h0c18.5,0,35.1,4.2,49.9,12.5s26.5,20.2,35.3,35.4c8.7,15.3,13,33.5,13,54.5h0c0,21-4.3,39.2-12.9,54.8s-20.3,27.7-35,36.3c-14.8,8.6-31.6,12.9-50.3,12.9h-.2ZM1113.6,581.8h0c20,0,35.5-6.8,46.7-20.3,11.1-13.5,16.7-31,16.7-52.5h0c0-13.1-2.8-25.2-8.3-36.3-5.6-11-13.1-19.8-22.6-26.6-9.5-6.7-20.3-10-32.4-10h0c-20,0-35.5,6.6-46.7,19.7-11.1,13.1-16.7,30.6-16.7,52.3h0c0,13.1,2.8,25.3,8.3,36.6,5.6,11.3,13.1,20.3,22.6,26.9,9.5,6.7,20.3,10.1,32.4,10.1h0Z"/>
      </g>
      <rect class="cls-5" x=".3" y="1.5" width="1497.6" height="936"/>
    </g>
    <g id="Layer_3">
      <circle class="cls-4" cx="750" cy="469.5" r="441.5"/>
    </g>
  </g>
</svg>